<?xml version="1.0" encoding="utf-8"?>
<!-- Generator: Adobe Illustrator 27.5.0, SVG Export Plug-In . SVG Version: 6.00 Build 0)  -->
<svg version="1.1" id="Layer_1" xmlns="http://www.w3.org/2000/svg" xmlns:xlink="http://www.w3.org/1999/xlink" x="0px" y="0px"
	 viewBox="0 0 4000 4000" style="enable-background:new 0 0 4000 4000;" xml:space="preserve">
<g>
	<g>
		<rect style="fill:#7CFF8F;" width="4000" height="4000"/>
	</g>
	<g>
		<g>
			<g>
				<g>
					<path style="fill:#52BF2E;" d="M1839.258,2327.387c0,0,159.282,52.741,111.258,199.299c0,0-16.003,143.287,23.97,215.59
						c35.599,64.392,75.746,141.695,29.595,210.081c-57.654,85.431-249.682,200.913-501.799,215.117
						c-260.945,14.701-365.565-100.073-340.709-181.04s36.794-137.395,13.321-190.04c-23.473-52.646-114.88-165.821-1.932-256.356
						C1285.91,2449.501,1839.258,2327.387,1839.258,2327.387z"/>
				</g>
				<g>
					<path style="fill:#52BF2E;" d="M1839.258,2327.387c0,0,159.282,52.741,111.258,199.299c0,0-16.003,143.287,23.97,215.59
						c35.599,64.392,75.746,141.695,29.595,210.081c-57.654,85.431-249.682,200.913-501.799,215.117
						c-260.945,14.701-365.565-100.073-340.709-181.04s36.794-137.395,13.321-190.04c-23.473-52.646-114.88-165.821-1.932-256.356
						C1285.91,2449.501,1839.258,2327.387,1839.258,2327.387z"/>
				</g>
				<g style="opacity:0.5;">
					<path style="fill:#FFFFFF;" d="M1345.043,3091.486c-57.672-4.724-130.953-49.875-124.381-94.015
						c12.03-80.802,31.878-127.15-3.509-207.512c-39.723-90.209-27.071-128.883-7.211-113.358
						c19.84,15.509,49.428,40.663,130.762,72.869c79.655,31.541-13.644,68.112,7.621,185.989
						C1364.947,3027.601,1402.714,3096.21,1345.043,3091.486z"/>
				</g>
				<g>
					<path style="fill:#469B19;" d="M1800.847,2387.951c0,0,135.89,44.995,94.918,170.029c0,0-13.653,122.243,20.45,183.928
						c30.371,54.935,64.622,120.885,25.249,179.228c-49.186,72.885-213.013,171.406-428.103,183.524
						c-222.621,12.542,162.142-78.772,100.684-258.852c-45.681-133.851-477.999-199.198-381.639-276.438
						C1328.766,2492.131,1800.847,2387.951,1800.847,2387.951z"/>
				</g>
				<g>
					<path style="fill:#232333;" d="M1456.784,3186.602c-187.781,0-263.604-69.351-288.389-100.984
						c-25.901-33.059-34.37-70.139-23.85-104.412c25.22-82.148,34.321-132.166,14.08-177.559
						c-3.306-7.417-8.252-16.453-13.98-26.917c-31.487-57.527-90.095-164.609,17.178-250.593
						c114.868-92.075,650.835-211.121,673.596-216.145c3.13-0.686,6.394-0.522,9.436,0.486c1.777,0.588,43.933,14.795,80.183,48.564
						c34.399,32.048,69.624,87.71,43.008,171.326c-1.582,16.099-12.473,140.879,22.029,203.289
						c32.832,59.385,82.444,149.128,28.772,228.662c-65.94,97.71-269.041,209.05-515.564,222.937
						C1487.079,3186.169,1471.572,3186.602,1456.784,3186.602z M1838.056,2345.908c-55.64,12.507-551.125,125.603-653.953,208.027
						c-77.534,62.148-48.125,132.759-8.208,205.691c6.101,11.145,11.37,20.771,15.269,29.514
						c27.217,61.042,11.204,125.107-12.561,202.52c-7.002,22.805-0.667,48.369,17.835,71.985
						c48.498,61.897,162.458,94.038,304.844,86.045c249.619-14.065,435.659-129.688,488.035-207.297
						c38.352-56.833,8.916-120.352-30.417-191.499c-42.231-76.384-26.763-220.105-26.084-226.187
						c0.137-1.213,0.396-2.41,0.776-3.569C1971.696,2404.841,1862.243,2355.286,1838.056,2345.908z"/>
				</g>
				<g>
					<path style="fill:#52BF2E;" d="M1741.064,1941.702c0,0,64.071,185.725,118.222,219.908
						c52.904,33.396,103.527,90.509-4.293,224.96c-95.197,118.71-346.538,268.95-553.744,244.82
						c-177.456-20.666-214.097-88.68-179.429-194.764c0,0,18.794-183.446-45.804-278.973
						c-75.289-122.409-28.474-167.972,19.964-220.006c87.271-93.749,453.92-295.617,602.153-249.328
						C1808.016,1722.631,1717.044,1873.33,1741.064,1941.702z"/>
				</g>
				<g>
					<path style="fill:#469B19;" d="M1710.349,1966.562c0,0,56.656,164.23,104.539,194.456
						c46.781,29.531,91.545,80.033-3.796,198.923c-63.978,79.779-207.709,175.663-353.447,207.723
						c-46.019,10.123,71.585-152.13,33.533-303.156c-25.136-99.762-195.857-109.513-281.05-147.606
						c-65.907-29.47-61.134-74.276-39.962-76.929c471.22-59.063,427.383-323.548,504.845-321.444
						C1753.816,1720.67,1689.109,1906.103,1710.349,1966.562z"/>
				</g>
				<g>
					<path style="fill:#232333;" d="M1346.637,2651.77c-15.989,0-31.809-0.867-47.449-2.688
						c-98.882-11.516-160.676-38.55-188.911-82.649c-21.853-34.133-23.826-77.791-6.016-133.413
						c1.653-18.887,13.906-181.235-43.003-265.391c-0.144-0.212-0.283-0.427-0.417-0.647
						c-80.72-131.243-30.086-185.525,18.884-238.02l3.218-3.452c90.491-97.21,464.497-302.935,620.498-254.194
						c85.498,26.697,70.852,110.334,59.084,177.537c-5.757,32.876-11.709,66.87-4.656,86.946c0.01,0.029,0.022,0.061,0.032,0.093
						c23.999,69.531,75.327,188.206,110.894,210.654c24.8,15.657,58.64,41.653,66.14,86.44
						c7.676,45.852-13.928,99.736-66.047,164.729C1780.517,2507.908,1552.272,2651.77,1346.637,2651.77z M1090.99,2148
						c67.188,99.812,49.341,282.695,48.547,290.439c-0.129,1.262-0.393,2.51-0.789,3.716
						c-14.949,45.745-14.448,80.112,1.531,105.068c22.107,34.529,75.434,56.272,163.03,66.472
						c204.146,23.806,447.585-125.793,537.786-238.271c44.775-55.833,64.526-101.777,58.703-136.555
						c-3.965-23.682-19.392-42.864-50.022-62.197c-57.737-36.448-118.711-209.336-125.539-229.128
						c-10.11-28.848-3.645-65.759,3.198-104.836c13.076-74.675,17.271-121.184-34.614-137.388
						c-60.112-18.767-173.508,7.214-311.106,71.294c-114.05,53.118-228.738,125.945-272.698,173.169l-3.242,3.479
						C1058.744,2003.682,1024.75,2040.12,1090.99,2148z"/>
				</g>
				<g>
					<path style="fill:#52BF2E;" d="M1363.535,2743.967c0,0,63.246,109.445-14.138,126.381
						c-66.553,14.566-238.281-91.863-307.779-189.872c-48.624-68.571-45.643-117.278,3.662-104.366
						c55.021,14.408,118.584,90.636,278.968,134.782"/>
				</g>
				<g>
					<path style="fill:#52BF2E;" d="M1363.535,2743.967c0,0,63.246,109.445-14.138,126.381
						c-66.553,14.566-238.281-91.863-307.779-189.872c-48.624-68.571-45.643-117.278,3.662-104.366
						c55.021,14.408,118.584,90.636,278.968,134.782L1363.535,2743.967z"/>
				</g>
				<g>
					<path style="fill:#52BF2E;" d="M1363.535,2743.967c0,0,63.246,109.445-14.138,126.381
						c-66.553,14.566-238.281-91.863-307.779-189.872c-48.624-68.571-45.643-117.278,3.662-104.366
						c55.021,14.408,118.584,90.636,278.968,134.782L1363.535,2743.967z"/>
				</g>
				<g>
					<path style="fill:#469B19;" d="M1359.903,2831.295c-1.227,4.702-3.597,9.949-16.27,12.721
						c-19.495,4.267-68.135-9.327-132.852-49.317c141.32-11.46-137.447-114.428-172.329-192.514
						c16.394,4.293,36.547,17.277,62.062,33.712c46.448,29.922,109.747,70.698,210.847,99.381
						C1311.361,2735.278,1375.041,2793.334,1359.903,2831.295z"/>
				</g>
				<g>
					<path style="fill:#232333;" d="M1369.419,2740.566c20.997,30.99,40.905,73.182,25.794,110.863
						c-12.882,30.606-52.204,38.286-81.104,32.109c-94.341-19.669-198.777-95.666-262.922-166.407
						c-13.924-15.998-26.692-33.267-37.454-51.89c-11.191-20.16-20.991-39.912-22.051-64.486
						c-1.153-26.783,18.93-45.012,45.563-41.263c28.361,3.83,53.245,21.09,74.91,34.71c42.632,28.398,84.574,54.006,130.724,74.428
						c27.281,12.931,55.402,23.651,83.171,35.709c7.415,3.083,4.311,14.296-3.608,13.106
						c-41.052-6.307-80.999-19.333-118.466-37.205c-37.661-17.637-73.232-39.928-107.33-61.709
						c-18.127-10.905-55.147-35.942-72.563-27.813c-8.427,14.4,7.903,45.067,15.934,59.283
						c30.29,50.766,75.038,91.02,122.388,126.457c34.557,26.701,195.177,130.892,212.016,53.031
						c3.585-27.417-7.053-55.843-16.769-82.121C1354.382,2739.903,1364.704,2734.104,1369.419,2740.566L1369.419,2740.566z"/>
				</g>
				<g>
					<path style="fill:#52BF2E;" d="M1024.074,2660.494c4.473,12.863-26.55,80.354-117.072,81.828
						c-76.814,1.25-128.614-30.719-126.964-65.088c1.711-35.647,81.931-66.184,131.116-64.47
						C974.392,2614.967,1019.601,2647.632,1024.074,2660.494z"/>
				</g>
				<g style="opacity:0.5;">
					<path style="fill:#FFFFFF;" d="M834.726,2682.386c0.937,20.17,38.654,33.262,13.312,30.395
						c-24.097-2.727-40.546-19.431-38.859-33.632c1.764-14.847,29.251-31.777,43.053-30.461
						C866.566,2650.053,833.833,2663.158,834.726,2682.386z"/>
				</g>
				<g>
					<path style="fill:#469B19;" d="M986.151,2665.784c-1.028,23.958-56.361,65.185-110.451,50.715
						c38.127-10.524,57.936-35.568,56.835-48.875c-0.573-6.929-16.141-20.4-57.167-27.125
						C908.596,2625.663,986.912,2648.037,986.151,2665.784z"/>
				</g>
				<g>
					<path style="fill:#232333;" d="M902.729,2758.667c-52.009,0-97.083-14.651-121.201-39.548
						c-12.361-12.756-18.508-27.512-17.781-42.666c2.493-51.902,98.633-81.658,147.976-79.99
						c66.338,2.312,119.976,36.294,127.756,58.674l0,0c5.798,16.67-8.857,39.583-13.489,46.206
						c-11.765,16.836-46.887,56.121-118.723,57.288C905.749,2758.655,904.235,2758.667,902.729,2758.667z M906.549,2628.997
						c-48.689,0-109.282,29.482-110.22,49.019c-0.359,7.483,4.495,14.138,8.628,18.406c14.407,14.871,48.711,30.371,101.777,29.592
						c70.564-1.147,98.623-47.346,101.243-60.872c-7.752-9.675-45.178-34.255-97.393-36.077
						C909.252,2629.019,907.902,2628.997,906.549,2628.997z M1008.974,2666.575h0.049H1008.974z"/>
				</g>
				<g>
					<path style="fill:#52BF2E;" d="M1108.502,2472.021c10.763,50.373,5.296,107.841-28.301,108.422
						c-33.479,0.579-83.258-46.458-89.347-126.58c-5.238-68.926,27.848-87.404,40.815-88.612
						C1057.981,2362.802,1091.332,2391.665,1108.502,2472.021z"/>
				</g>
				<g>
					<path style="fill:#52BF2E;" d="M1096.271,2472.008c8.361,39.127,4.113,83.766-21.983,84.217
						c-26.005,0.45-64.671-36.086-69.401-98.322c-4.069-53.539,21.631-67.891,31.703-68.829
						C1057.028,2387.171,1082.934,2409.59,1096.271,2472.008z"/>
				</g>
				<g style="opacity:0.5;">
					<path style="fill:#FFFFFF;" d="M1018.834,2413.343c2.777,4.002,2.723,21.995,3.696,34.878
						c4.085,54.114,27.302,84.983,25.126,88.77c-2.176,3.787-35.437-32.079-39.792-78.082
						C1005.284,2431.654,1016.057,2409.341,1018.834,2413.343z"/>
				</g>
				<g>
					<path style="fill:#469B19;" d="M1083.712,2475.364c5.014,22.892,5.154,68.557-4.442,78.121
						c-4.381,4.366-13.627-1.484-19.108-9.083c20.022-39.344-6.828-146.114-34.115-144.017
						C1040.856,2376.852,1068.271,2408.539,1083.712,2475.364z"/>
				</g>
				<g>
					<path style="fill:#232333;" d="M1079.533,2596.76c-45.667,0.002-98.474-56.536-104.944-141.663
						c-6.245-82.197,37.993-104.448,55.566-106.086c15.816-1.506,69.338,2.832,94.297,119.602l0,0
						c7.944,37.173,9.182,86.016-11.167,111.621c-8.408,10.581-19.751,16.294-32.8,16.519
						C1080.168,2596.758,1079.85,2596.76,1079.533,2596.76z M1034.775,2381.418c-0.537,0-1.069,0.024-1.594,0.073
						c-6.599,0.615-30.366,14.492-26.062,71.135c5.591,73.564,49.929,111.511,72.461,111.511c0.115,0,0.227,0,0.342-0.002
						c2.363-0.042,4.949-0.579,7.825-4.197c10.442-13.14,12.463-48.679,4.807-84.509l0,0
						C1078.639,2410.322,1053.229,2381.418,1034.775,2381.418z"/>
				</g>
				<g style="opacity:0.5;">
					<path style="fill:#FFFFFF;" d="M1300.897,2564.764c-34.518,16.815-163.95-10.084-140.536-84.889
						c23.896-76.346,15.41-163.843,3.362-227.239c-10.222-53.788-48.277-116.76-38.057-128.727s45.955,48.4,137.653,80.913
						c89.662,31.792,13.423,103.765,10.272,187.537C1269.968,2488.686,1353.19,2539.291,1300.897,2564.764z"/>
				</g>
				<g>
					<path style="fill:#469B19;" d="M1112.67,2003.015c0,0,333.606,3.149,487.912-266.467c0,0-143.008,19.26-275.36,96.845
						c-58.423,34.247-5.612,54.34-19.022,92.657C1285.884,1984.097,1112.67,2003.015,1112.67,2003.015z"/>
				</g>
				<g>
					<path style="fill:#232333;" d="M1112.67,2003.015c151.643-26.715,301.611-80.095,415.091-186.746
						c26.412-24.732,49.655-51.361,72.82-79.723c-9.103,22.788-20.229,44.942-33.885,65.422
						C1471.481,1946.897,1282.246,2021.598,1112.67,2003.015L1112.67,2003.015z"/>
				</g>
			</g>
			<g>
				<path style="fill:#60567C;" d="M2292.714,2044.242l9.791,131.775l16.153,218.064l0.592,8.103
					c319.172-11.013,589.552-103.819,748.685-277.281c25.349-27.624,47.825-57.277,67.287-88.951
					c8.899-14.53,16.412-29.174,22.453-43.783c80.318-191.876-74.722-376.583-277.481-201.318
					c-19.34,16.728-39.51,33.073-60.469,48.939c-78.76,59.708-168.9,112.388-270.319,149.613
					C2470.65,2018.327,2385.048,2037.925,2292.714,2044.242z"/>
			</g>
			<g>
				<path style="fill:#777782;" d="M2551.116,1988.798c-69.291,72.364-156.795,119.344-251.513,148.112l-6.903-92.67
					c92.358-6.324,177.947-25.917,256.723-54.818C2550.003,1989.199,2550.537,1989.021,2551.116,1988.798z"/>
			</g>
			<g style="opacity:0.25;">
				<path style="fill:#181558;" d="M2551.116,1988.798c-69.291,72.364-156.795,119.344-251.513,148.112l-6.903-92.67
					c92.358-6.324,177.947-25.917,256.723-54.818C2550.003,1989.199,2550.537,1989.021,2551.116,1988.798z"/>
			</g>
			<g>
				<path style="fill:#5E5E68;" d="M1918.236,2121.012l-26.674,49.43c-85.1-7.392-163.43-21.687-226.487-37.495
					c45.334-25.205,100.552-47.292,167.795-62.522L1918.236,2121.012z"/>
			</g>
			<g>
				<path style="fill:#5E5E68;" d="M2424.468,2085.031c-217.001,118.988-512.422,100.418-707.603,59.761
					c-13.003-90.265-9.129-287.85,274.313-287.85C2250.529,1856.941,2374.193,2000.599,2424.468,2085.031z"/>
			</g>
			<g style="opacity:0.25;">
				<path style="fill:#181558;" d="M2318.658,2394.082l0.592,8.103c319.172-11.013,589.552-103.819,748.685-277.281
					c25.349-27.624,47.825-57.277,67.287-88.951c8.899-14.53,16.412-29.174,22.453-43.783
					c-2.046,2.768-303.359,357.717-691.09,243.024C2400.67,2307.295,2353.806,2348.836,2318.658,2394.082z"/>
			</g>
			<g>
				
					<ellipse transform="matrix(0.7071 -0.7071 0.7071 0.7071 -500.1542 2684.9585)" style="fill:#FFFFFF;" cx="2990.954" cy="1946.219" rx="74.893" ry="74.893"/>
			</g>
			<g>
				<circle style="fill:#FFFFFF;" cx="2965.067" cy="1827.674" r="28.504"/>
			</g>
			<g>
				<circle style="fill:#FFFFFF;" cx="3107.504" cy="1912.966" r="28.504"/>
			</g>
			<g>
				
					<ellipse transform="matrix(0.8554 -0.518 0.518 0.8554 -510.3474 1847.135)" style="fill:#FFFFFF;" cx="3053.082" cy="1837.61" rx="35.923" ry="35.923"/>
			</g>
			<g>
				<path style="fill:#232333;" d="M2319.257,2420.022c-9.556,0-17.461-7.576-17.793-17.197c-0.339-9.834,7.356-18.079,17.19-18.418
					c383.337-13.22,667.944-140.278,801.396-357.769c66.479-108.345,44.99-215.537-8.979-261.389
					c-54.946-46.672-136.909-32.065-219.25,39.094c-180.706,156.17-381.87,242.869-597.908,257.691
					c-9.785,0.706-18.315-6.738-18.989-16.553s6.738-18.315,16.553-18.989c208.166-14.28,402.314-98.091,577.048-249.102
					c96.802-83.66,196.094-98.35,265.61-39.292c36.187,30.742,58.323,78.025,62.332,133.14
					c4.211,57.893-11.714,118.071-46.05,174.033c-71.008,115.723-182.183,207.205-330.435,271.902
					c-141.306,61.667-309.563,96.267-500.103,102.839C2319.672,2420.02,2319.462,2420.022,2319.257,2420.022z"/>
			</g>
			<g>
				<path style="fill:#686779;" d="M2082.435,2675.927c3.088,118.31,12.423,189.33,15.883,268.065
					c9.605,135.426-22.799,438.447-3.708,539.679c8.702,46.142,59.915,78.499,263.184,78.499c99.903,0,151.023,4.05,168.476-66.518
					c20.28-81.999-65.537-118.354-65.537-118.354s104.752-323.366,126.445-582.475"/>
			</g>
			<g>
				<path style="fill:#686779;" d="M2573.267,2909.121c-35.701,230.873-112.535,468.199-112.535,468.199
					s63.277,26.787,68.338,86.258c0.835,9.796,0.093,20.474-2.785,32.08c-17.457,70.566-68.57,66.528-168.477,66.528
					c-203.296,0-254.504-32.359-263.186-78.506c-19.08-101.253,13.278-404.271,3.714-539.694
					c-3.482-78.412-12.72-149.164-15.877-266.527c0-0.511-0.046-1.021-0.046-1.532h0.046l504.735,118.896
					C2584.084,2831.963,2579.256,2870.45,2573.267,2909.121z"/>
			</g>
			<g>
				<path style="fill:#60567C;" d="M2573.267,2909.121c-35.701,230.873-112.535,468.199-112.535,468.199
					s63.277,26.787,68.338,86.258c0.835,9.796,0.093,20.474-2.785,32.08c-17.457,70.566-68.57,66.528-168.477,66.528
					c-203.296,0-254.504-32.359-263.186-78.506c-19.08-101.253,13.278-404.271,3.714-539.694
					c-3.482-78.412-12.72-149.164-15.877-266.527c0-0.511-0.046-1.021-0.046-1.532h0.046l504.735,118.896
					C2584.084,2831.963,2579.256,2870.45,2573.267,2909.121z"/>
			</g>
			<g>
				<path style="fill:#777782;" d="M1784.71,2931.266c0,0-43.617,168.082-194.897,143.088
					c-134.878-22.284-176.931-179.245-104.384-258.027C1570.403,2724.051,1729.204,2729.608,1784.71,2931.266z"/>
			</g>
			<g>
				<path style="fill:#60567C;" d="M1784.731,2931.26c0,0-43.641,168.106-194.914,143.079
					c-77.707-12.825-124.643-70.448-136.533-131.991c-8.729-45.244,1.425-92.67,32.152-126.024
					c54.997-59.716,140.941-78.464,209.831-29.48C1732.718,2813.43,1765.137,2860.188,1784.731,2931.26z"/>
			</g>
			<g style="opacity:0.25;">
				<path style="fill:#181558;" d="M1784.731,2931.26c0,0-43.641,168.106-194.914,143.079
					c-77.707-12.825-124.643-70.448-136.533-131.991c23.556,38.074,67.286,87.148,127.939,64.392
					c88.351-33.131-19.684-146.82,114.044-219.896C1732.718,2813.43,1765.137,2860.188,1784.731,2931.26z"/>
			</g>
			<g>
				<path style="fill:#232333;" d="M1619.884,3093.223c-10.364,0-21.262-0.881-32.729-2.776
					c-67.673-11.182-121.196-55.989-143.176-119.861c-20.601-59.866-9.316-123.21,29.451-165.31
					c46.614-50.62,113.232-72.935,173.821-58.242c71.631,17.363,126.033,81.255,153.186,179.905
					c0.759,2.754,0.781,5.659,0.064,8.425C1800.058,2937.061,1757.819,3093.223,1619.884,3093.223z M1609.699,2775.205
					c-40.334,0-81.387,18.63-112.271,52.17c-30.637,33.269-39.299,84.077-22.602,132.595
					c18.015,52.351,61.995,89.094,117.646,98.289c124.187,20.527,167.815-102.273,175.291-127.012
					c-24.194-84.224-69.607-138.308-128.198-152.51C1629.772,2776.362,1619.753,2775.205,1609.699,2775.205z"/>
			</g>
			<g style="opacity:0.25;">
				<path style="fill:#181558;" d="M2176.795,3160.514c-23.165,39.972-76.74,306.731,44.29,329.619
					c164.764,31.151,271.449,3.343,307.986-26.556c0.835,9.796,0.093,20.474-2.785,32.08
					c-17.457,70.566-68.57,66.528-168.477,66.528c-203.296,0-254.504-32.359-263.186-78.506
					c-19.08-101.253,13.278-404.271,3.714-539.694c-3.482-78.412-12.72-149.164-15.877-266.527v-1.532l504.735,118.896
					c-3.11,37.14-7.938,75.627-13.927,114.299C2466.675,3098.583,2223.082,3080.57,2176.795,3160.514z"/>
			</g>
			<g>
				<path style="fill:#232333;" d="M2100.242,2675.463c1.69,90.1,11.496,180.453,16.047,270.653
					c4.679,91.244-1.861,182.52-5.237,273.269c-2.503,85.806-10.09,171.436,0.313,256.371c1.665,14.475,8.242,26.05,21.317,34.808
					c61.168,39.829,224.061,34.248,300.164,32.846c39.771-2.102,67.268-10.555,76.196-52.351
					c11.931-42.438-17.994-80.201-55.259-97.358c-8.537-3.683-12.756-13.232-9.995-21.891
					c14.845-46.881,28.562-94.702,41.472-142.457c21.321-77.61,38.875-156.087,54.672-234.945
					c8.65-41.194,18.427-85.784,25.738-127.165c4.75-24.426,8.308-48.963,12.698-73.531c1.692-10.044,17.718-9.81,17.685,1.856
					c-0.897,49.339-5.51,100.933-12.099,149.981c-6.2,49.76-16.49,98.807-28.053,147.537
					c-22.51,97.673-48.067,193.977-78.223,289.703c0,0-9.996-21.891-9.996-21.891c2.672,1.176,4.318,2.009,6.338,3.048
					c44.785,22.361,80.716,70.498,72.045,122.594c-3.92,26.618-14.457,54.049-36.894,70.865
					c-35.398,25.292-80.276,21.582-120.461,22.619c-44.515-0.217-92.883,0.13-137.24-3.886
					c-60.566-6.435-158.885-14.339-174.213-88.466c-5.229-28.946-6.027-58.645-6.48-87.804
					c-0.723-121.401,9.269-241.759,11.279-362.533c2.482-120.952-15.587-239.98-17.424-360.942
					C2064.647,2653.221,2098.761,2651.517,2100.242,2675.463L2100.242,2675.463z"/>
			</g>
			<g>
				<path style="fill:#232333;" d="M2269,3370.552c46.918-15.462,97.442-21.656,146.835-17.999
					c16.909,1.012,33.722,4.168,50.599,7.87c22.939,5.766,15.637,39.353-7.676,34.995c-15.55-5.693-30.743-12.682-47.313-16.508
					c-6.496-1.974-16.177-3.804-22.896-5.298C2349.249,3366.491,2308.759,3364.956,2269,3370.552L2269,3370.552z"/>
			</g>
			<g>
				<path style="fill:#FFFFFF;" d="M1687.995,2903.281c0,0,168.106,155.246,394.429,155.246c97,0,176.212-12.749,235.064-27.319
					c140.176-34.703,249.762-146.26,277.382-288.001c0.705-3.617,1.369-7.254,1.992-10.91c9.843-57.475,9.61-119.777,1.393-185.98
					c-9.424-75.905-41.55-177.762-86.954-281.755c-17.456-39.972-36.863-80.223-57.661-119.498c0,0-161.002-305.014-462.488-274.141
					c-172.609,17.688-265.042,317.92-265.042,317.92c-15.505,35.097-28.876,77.716-39.74,124.93
					c-1.578,6.732-3.064,13.603-4.55,20.52C1643.427,2517.023,1640.595,2759.177,1687.995,2903.281z"/>
			</g>
			<g style="opacity:0.25;">
				<path style="fill:#181558;" d="M1687.995,2903.281c0,0,168.106,155.246,394.429,155.246c97,0,176.212-12.749,235.064-27.319
					c140.176-34.703,249.762-146.26,277.382-288.001c0.705-3.617,1.369-7.254,1.992-10.91c0,0-114.345,246.704-442.758,207.474
					c-305.896-36.537-359.61-169.545-369.405-265.738c-9.75-96.147,60.584-326.045,24.234-364.717
					c-24.096-25.673-70.891-17.781-122.563,4.457c-1.578,6.732-3.064,13.603-4.55,20.52
					C1643.427,2517.023,1640.595,2759.177,1687.995,2903.281z"/>
			</g>
			<g style="opacity:0.25;">
				<path style="fill:#371A45;" d="M2344.936,3023.93c-1.47,0.401-2.939,0.802-4.408,1.202c-0.401,0.134-0.757,0.223-1.113,0.312
					c-59.673,16.566-145.039,32.642-252.582,33.087h-4.408c-226.309,0-394.415-155.236-394.415-155.236
					c-22.533-68.489-33.711-159.066-35.091-254.897c-1.603-105.896,8.774-218.204,28.902-314.125
					c1.469-6.902,2.983-13.76,4.541-20.484c51.701-22.266,98.459-30.148,122.55-4.453c36.383,38.653-33.977,268.569-24.225,364.712
					c1.647,16.209,4.542,33.443,9.663,51.122c25.383,87.148,105.362,184.226,359.769,214.597
					c14.517,1.737,28.634,2.895,42.305,3.563L2344.936,3023.93z"/>
			</g>
			<g>
				<path style="fill:#777782;" d="M1681.808,2312.002c345.087,151.616,778.845,40.74,829.481-47.449
					c-17.457-39.972-36.863-80.222-57.661-119.499c0,0-95.146-288.117-462.461-288.117s-265.069,331.897-265.069,331.897
					C1708.364,2228.944,1693.461,2256.57,1681.808,2312.002z"/>
			</g>
			<g>
				<path style="fill:#60567C;" d="M1681.808,2312.002c345.087,151.616,778.845,40.74,829.481-47.449
					c-17.457-39.972-36.863-80.222-57.661-119.499c0,0-95.146-288.117-462.461-288.117s-265.069,331.897-265.069,331.897
					C1708.364,2228.944,1693.461,2256.57,1681.808,2312.002z"/>
			</g>
			<g style="opacity:0.25;">
				<path style="fill:#181558;" d="M2424.468,2085.031c-217.001,118.988-512.422,100.418-707.603,59.761
					c-13.003-90.265-9.129-287.85,274.313-287.85C2250.529,1856.941,2374.193,2000.599,2424.468,2085.031z"/>
			</g>
			<g>
				<path style="fill:#232333;" d="M1734.263,2192.46c-63.225,200.478-90.702,503.289-29.357,705.226
					c3.223,9.429-1.956,19.734-11.47,22.733c-9.376,2.976-19.389-2.213-22.365-11.589c-19.024-60.005-27.689-121.417-32.469-182.657
					c-9.338-160.098-1.997-324.844,51.684-477.237c4.733-12.25,11.644-31.111,17.679-42.807c3.258-7.018,6.628-13.969,10.013-20.883
					c2.163-4.419,7.498-6.248,11.917-4.084C1734.125,2183.227,1735.943,2188.192,1734.263,2192.46L1734.263,2192.46z"/>
			</g>
			<g>
				<path style="fill:#232333;" d="M2475.553,2958.608c148.195-176.423,123.025-403.705,50.87-607.424
					c-24.105-68.106-50.449-135.368-72.783-206.134c5.853,7.235,11.317,14.706,16.824,22.177
					c58.774,83.487,97.685,178.739,127.396,276.096C2648.677,2616.607,2639.719,2848.677,2475.553,2958.608L2475.553,2958.608z"/>
			</g>
			<g>
				<path style="fill:#232333;" d="M2317.645,3421.62c50.331,20.024,68.045,95.524,28.844,135.01
					c-14.588,14.813-34.963,25.274-56.661,21.54c-9.312-1.78-15.417-10.772-13.637-20.083c3.416-15.017,17.707-13.611,29.883-20.155
					C2353.763,3516.535,2351.526,3455.774,2317.645,3421.62L2317.645,3421.62z"/>
			</g>
			<g>
				<path style="fill:#232333;" d="M2429.003,3418.014c39.283,23.942,61.773,90.77,37.352,132
					c-10.029,17.314-29.636,31.244-50.964,29.751c-9.764-0.724-17.092-9.226-16.37-18.99c0.543-8.692,7.159-14.393,14.822-16.6
					c8.409-3.103,15.622-7.787,21.917-15.052C2461.143,3501.8,2450.43,3446.203,2429.003,3418.014L2429.003,3418.014z"/>
			</g>
			<g>
				<path style="fill:#FFFFFF;" d="M1652.853,2648.37c-5.878,123.149-7.33,511.8,1.176,713.309
					c2.471,58.554-3.841,92.018,7.924,125.598c22.857,65.241,84.722,79.412,265.158,73.964
					c96.241-2.906,125.177-41.86,133.464-75.008c13.409-53.637-15.232-106.29-15.232-106.29s36.459-322.497,42.66-324.047
					c9.752-2.438,121.869,4.03,257.032-31.907L1652.853,2648.37z"/>
			</g>
			<g>
				<path style="fill:#FFFFFF;" d="M2345.041,3023.978c-72.145,19.174-137.698,26.277-184.68,29.108
					c-41.04,2.461-67.828,1.672-72.377,2.833c-6.175,1.532-42.618,324.049-42.618,324.049s28.598,52.646,15.228,106.267
					c-8.31,33.148-37.233,72.099-133.473,75.023c-180.456,5.432-242.293-8.728-265.182-74.002
					c-11.746-33.565-5.431-67.038-7.892-125.58c-5.896-139.276-7.01-367.967-5.199-536.629
					c0.789-75.348,2.181-138.673,3.992-176.695L2345.041,3023.978z"/>
			</g>
			<g style="opacity:0.25;">
				<path style="fill:#181558;" d="M2345.025,3023.974c-1.514,0.401-3.028,0.802-4.498,1.158c-0.401,0.134-0.757,0.223-1.113,0.312
					c-69.915,18.08-133.327,24.893-179.061,27.654c-41.013,2.449-67.821,1.648-72.364,2.806c-0.312,0.089-0.713,0.979-1.158,2.627
					h-4.408c-226.309,0-394.415-155.236-394.415-155.236c-22.533-68.489-33.711-159.066-35.091-254.897l257.38-133.273
					c25.383,87.148-100.125,394.876,286.126,428.204l148.512,80.602L2345.025,3023.974z"/>
			</g>
			<g>
				<path style="fill:#777782;" d="M2160.361,3053.086c-41.04,2.461-67.828,1.672-72.377,2.833
					c-6.175,1.532-42.618,324.049-42.618,324.049s28.598,52.646,15.228,106.267c-8.31,33.148-37.233,72.099-133.473,75.023
					c-180.456,5.432-242.293-8.728-265.182-74.002c-11.746-33.565-5.431-67.038-7.892-125.58
					c-5.896-139.276-7.01-367.967-5.199-536.629c36.071,47.54,157.846,173.723,455.524,213.881
					C2125.542,3041.758,2144.112,3046.587,2160.361,3053.086z"/>
			</g>
			<g>
				<path style="fill:#60567C;" d="M2160.353,3053.098c-41.013,2.449-67.821,1.648-72.364,2.806
					c-1.514,0.401-4.899,20.306-9.084,50.098c-12.87,90.933-33.532,273.957-33.532,273.957s28.589,52.636,15.229,106.296
					c-8.327,33.131-37.228,72.096-133.46,74.991c-180.486,5.433-242.295-8.728-265.184-74.011
					c-11.756-33.532-5.433-67.02-7.927-125.578c-4.141-98.014-5.922-240.336-5.966-374.821c0-56.599,0.267-111.818,0.801-161.782
					c36.071,47.515,157.819,173.717,455.511,213.884C2125.529,3041.742,2144.099,3046.596,2160.353,3053.098z"/>
			</g>
			<g style="opacity:0.25;">
				<path style="fill:#181558;" d="M2160.353,3053.098c-41.013,2.449-67.821,1.648-72.364,2.806
					c-1.514,0.401-4.899,20.306-9.084,50.098c-241.716,21.108-370.234-59.494-430.841-119.166c0-56.599,0.267-111.818,0.801-161.782
					c36.071,47.515,157.819,173.717,455.511,213.884C2125.529,3041.742,2144.099,3046.596,2160.353,3053.098z"/>
			</g>
			<g style="opacity:0.25;">
				<path style="fill:#181558;" d="M1661.991,3487.3c22.824,65.238,84.684,79.376,265.151,73.924
					c96.217-2.895,125.169-41.836,133.468-74.986c5.26-21.038,4.053-41.884,0.627-59.496c-0.193,0.917-0.386,1.882-0.627,2.798
					c-8.3,33.15-37.251,72.09-133.468,74.986c-180.467,5.453-242.328-8.686-265.151-73.924c-5.115-14.621-6.803-29.193-7.286-45.841
					c-0.048,0-0.048,0.048-0.096,0.048C1655.139,3429.589,1651.858,3458.397,1661.991,3487.3z"/>
			</g>
			<g>
				<path style="fill:#232333;" d="M1670.646,2649.219c-7.482,241.181-6.446,483.923,1.602,725.023
					c2.586,45.257-9.585,99.692,23.107,135.551c15.649,16.701,42.043,24.571,69.3,28.862c27.491,4.21,56.329,5.374,85.203,5.752
					c28.276,0.237,58.422-0.186,86.744-1.441c44.003-2.791,94.669-14.579,106.582-60.643c7.428-29.768,0.913-62.132-11.576-89.954
					c-2.396-4.748-4.792-9.248-3.963-14.426c10.071-86.353,23.722-206.823,36.14-291.81c1.98-11.903,3.094-22.802,6.652-34.807
					c0.648-1.893,1.823-4.4,3.439-6.371c2.065-3.017,7.138-5.879,10.132-6.41c0,0,1.583-0.314,1.583-0.314l1.55-0.245
					c13.058-1.332,27.265-0.987,39.906-2.032c72.951-1.145,144.823-1.75,217.989-11.965
					c-68.464,27.411-142.769,46.038-216.841,49.188c-10.176-0.041-26.552-0.114-35.986,0.171c-0.225,0.049-0.641,0.019-0.849,0.048
					c0,0,0.419-0.061,0.419-0.061c5.284-1.098,10.456-5.241,12.245-10.135c-16.683,94.656-28.986,222.048-40.981,318.745
					c0.001,0-2.051-10.511-2.051-10.511c2.238,4.034,3.624,7.647,5.41,11.559c17.122,41.427,23.632,91.74,1.52,132.831
					c-30.169,53.127-96.566,62.876-151.766,63.536c-52.627,1.012-104.213,2.246-157.04-5.512
					c-40.083-5.65-84.932-22.046-105.202-60.879c-23.898-42.741-15.529-91.987-17.28-137.886
					c-4.826-124.964-6.178-249.805-6.364-374.537c0.111-117.861,0.194-235.021,4.791-353.024
					C1636.766,2624.261,1671,2625.18,1670.646,2649.219L1670.646,2649.219z"/>
			</g>
			<g>
				<path style="fill:#232333;" d="M1719.797,3382.062c17.803-17.893,42.379-28.121,66.391-34.86
					c72.454-19.268,156.101-7.39,215.264,40.138c-47.312-11.904-92.841-21.063-140.982-22.102
					C1812.932,3364.413,1765.831,3366.905,1719.797,3382.062L1719.797,3382.062z"/>
			</g>
			<g>
				<path style="fill:#232333;" d="M1945.989,3416.292c22.75,34.843,34.558,80.341,18.007,120.736
					c-5.641,14.193-14.83,27.015-25.54,37.946l-22.692-27.463c9.467-6.086,18.088-13.542,24.581-22.914
					C1962.07,3493.663,1958.739,3450.79,1945.989,3416.292L1945.989,3416.292z"/>
			</g>
			<g>
				<path style="fill:#232333;" d="M1814.925,3425.435c15.191,40.7,24.603,88.672,4.16,129.719
					c-3.396,6.367-7.638,12.49-12.68,18.105l-23.766-26.538c7.449-4.771,14.094-11.862,19.142-20.867
					C1817.844,3496.073,1818.708,3458.855,1814.925,3425.435L1814.925,3425.435z"/>
			</g>
			<g>
				<path style="fill:#60567C;" d="M1832.866,2070.424c-307.731,69.846-364.976,282.993-364.976,282.993
					s-70.552,97.33,26.966,225.695c112.844,148.54,219.302-79.628,219.302-79.628l204.077-378.457L1832.866,2070.424z"/>
			</g>
			<g style="opacity:0.25;">
				<path style="fill:#181558;" d="M1918.236,2121.012l-26.674,49.43c-85.1-7.392-163.43-21.687-226.487-37.495
					c45.334-25.205,100.552-47.292,167.795-62.522L1918.236,2121.012z"/>
			</g>
			<g>
				<path style="fill:#232333;" d="M1575.17,2647.173c-33.843,0-65.588-19.229-94.499-57.283
					c-96.233-126.68-40.781-226.025-29.104-244.119c8.586-27.993,79.053-225.01,377.356-292.717
					c9.6-2.166,19.136,3.835,21.313,13.428c2.178,9.595-3.835,19.136-13.428,21.313c-153.123,34.756-240.559,106.365-286.943,160.32
					c-50.247,58.442-64.646,109.46-64.785,109.971c-0.566,2.063-1.511,4.055-2.769,5.786c-2.48,3.503-61.055,88.914,26.729,204.465
					c23.577,31.038,47.842,45.464,72.017,42.896c52.764-5.61,102.322-88.013,116.963-119.29c4.17-8.911,14.773-12.754,23.677-8.591
					c8.909,4.165,12.761,14.753,8.604,23.665c-2.488,5.332-61.895,130.701-145.418,139.634
					C1581.625,2647,1578.388,2647.173,1575.17,2647.173z"/>
			</g>
			<g>
				<path style="fill:#52BF2E;" d="M1820.599,2103.861c75.658,88.272,277.028,606.461-177.017,735.142
					c0,0-40.815-65.125-0.946-124.786c49.405-73.93,244.398-168.085,122.842-474.394c-16.393-41.309-50.51-109.731-88.723-113.152
					c0,0-7.585-53.533,51.292-53.533C1786.923,2073.138,1820.599,2103.861,1820.599,2103.861z"/>
			</g>
			<g>
				<path style="fill:#52BF2E;" d="M1643.567,2838.991c0,0-40.79-65.105-0.935-124.777
					c49.429-73.922,244.388-168.061,122.861-474.392c-7.392-18.659-18.436-42.839-31.839-64.081
					c-16.209-25.783-35.982-47.203-56.911-49.074c0,0-7.57-53.526,51.3-53.526c58.87,0,92.536,30.726,92.536,30.726
					c10.91,12.736,24.448,34.378,38.207,62.522C1940.68,2333.471,2032.147,2728.91,1643.567,2838.991z"/>
			</g>
			<g>
				<path style="fill:#52BF2E;" d="M1926.564,2532.259c-17.546,130.477-92.67,252.805-282.997,306.732
					c0,0-40.79-65.105-0.935-124.777c32.508-48.583,127.849-105.94,154.88-226.531c14.116-62.834,9.618-142.901-32.019-247.861
					c-7.392-18.659-18.436-42.839-31.839-64.081c-16.209-25.783-35.982-47.203-56.911-49.074c0,0-7.57-53.526,51.3-53.526
					c58.87,0,92.536,30.726,92.536,30.726c10.91,12.736,24.448,34.378,38.207,62.522
					C1900.557,2251.622,1944.865,2396.349,1926.564,2532.259z"/>
			</g>
			<g>
				<path style="fill:#469B19;" d="M1926.564,2532.259c-17.546,130.477-92.67,252.805-282.997,306.732
					c0,0-40.79-65.105-0.935-124.777c32.508-48.583,127.849-105.94,154.88-226.531
					C1844.982,2491.736,1893.209,2503.848,1926.564,2532.259z"/>
			</g>
			<g>
				<path style="fill:#469B19;" d="M1858.786,2166.389c-46.712-29.702-100.062-5.566-125.132,9.352
					c-16.209-25.783-35.982-47.203-56.911-49.074c0,0-7.57-53.526,51.3-53.526c58.87,0,92.536,30.726,92.536,30.726
					C1831.489,2116.604,1845.026,2138.246,1858.786,2166.389z"/>
			</g>
			<g>
				<path style="fill:#232333;" d="M1643.583,2855.317c-5.513,0-10.784-2.808-13.821-7.651
					c-1.895-3.025-45.903-74.849-0.689-142.512c10.374-15.522,25.642-30.876,43.323-48.657
					c68.564-68.948,172.178-173.142,77.92-410.657c-23.674-59.663-53.821-101.025-75.017-102.922
					c-7.544-0.674-13.633-6.458-14.695-13.958c-0.432-3.052-3.699-30.41,14.394-51.248c12.034-13.857,29.88-20.884,53.047-20.884
					c64.458,0,101.98,33.552,103.547,34.98c0.491,0.449,0.957,0.93,1.392,1.436c50.649,59.099,156.768,304.558,95.632,507.19
					c-38.254,126.79-132.656,212.336-280.586,254.263C1646.557,2855.115,1645.06,2855.317,1643.583,2855.317z M1693.251,2114.097
					c40.803,16.277,71.714,80.208,87.388,119.712c102.144,257.388-15.073,375.264-85.11,445.691
					c-16.482,16.575-30.718,30.891-39.331,43.779c-24.795,37.107-12.544,77.422-4.27,96.245
					c129.172-39.885,211.729-116.714,245.459-228.513c57.749-191.409-46.313-425.115-88.379-475.598
					c-4.705-3.835-33.911-25.962-80.962-25.962c-13.294,0-22.854,3.247-28.416,9.651
					C1695.732,2103.591,1693.993,2109.263,1693.251,2114.097z"/>
			</g>
			<g>
				<path style="fill:#60567C;" d="M1897.514,2618.804c-30.892,19.967-61.491,25.911-111.806,23.525
					c-9.753,12.683-71.286,85.267-177.022,92.258c-40.52,2.679-101.508-6.865-143.284-54.208
					c-47.51-53.83-68.691-125.368-58.812-203.268c11.721-92.341,67.1-193.64,173.883-284.977l-38.05,210.468
					c13.73-12.767,62.621-51.571,108.29-80.914c49.938-32.105,58.352-64.546,112.224-69.779
					c13.939-1.382,21.808,52.826,34.827,53.956c51.068,4.563,97.699,20.637,120.471,44.036
					c17.372,17.832,28.422,39.138,34.659,61.868C1975.497,2493.938,1934.685,2594.777,1897.514,2618.804z"/>
			</g>
			<g style="opacity:0.25;">
				<path style="fill:#181558;" d="M1897.514,2618.804c-30.892,19.967-61.491,25.911-111.806,23.525
					c-9.753,12.683-71.286,85.267-177.022,92.258c-40.52,2.679-101.508-6.865-143.284-54.208
					c-47.51-53.83-68.691-125.368-58.812-203.268c6.028,29.009,15.446,59.607,28.673,63.668c29.26,9,56.426-48.808,57.975-52.156
					c-1.256,5.191-34.492,140.898,69.444,173.004c87.779,27.083,176.06-11.134,158.102-74.049c0,0,68.188,18.627,120.973,5.316
					c67.644-17.079,109.42-113.313,111.136-181.125C1975.497,2493.938,1934.685,2594.777,1897.514,2618.804z"/>
			</g>
			<g>
				<path style="fill:#232333;" d="M1542.443,2402.592c21.751-30.773,49.425-56.063,78.504-79.605
					c14.088-11.259,28.904-20.628,42.288-32.591c14.375-12.157,26.253-25.836,42.502-37.452
					c15.78-11.52,35.679-18.279,55.142-20.257c31.411-1.244,34.229,37.468,46.837,56.991c-1.145-1.391-4.723-3.35-7.162-3.548
					c42.451,3.517,98.113,14.812,133.148,48.956c52.24,52.452,56.715,134.704,36.751,202.14
					c-10.548,34.032-25.604,68.937-53.38,93.224c-36.465,29.298-87.805,34.355-132.197,29.675
					c-0.088,0.022,14.961-6.947,14.943-6.944c-92.278,115.999-290.374,146.532-373.46,4.406
					c-55.94-87.948-48.269-202.62-4.425-293.487c33.926-72.109,86.96-133.95,146.955-185.504
					c18.281-14.827,40.622,11.177,23.244,26.997c-42.57,36.639-80.91,77.975-111.154,125.174
					c-29.401,46.226-51.343,98.841-57.164,153.21c-8.442,70.983,13.455,146.044,65.818,195.593c25.21,22.749,59.539,35,94.59,37.219
					c71.144,4.031,142.562-30.649,187.341-85.306c3.726-4.769,9.356-7.164,14.981-6.945c17.681,0.073,35.074-0.703,51.046-3.601
					c21.951-4.538,44.522-12.72,59.182-30.125c40.914-54.703,56.66-147.909,20.264-207.635
					c-23.958-41.146-76.615-51.464-120.933-57.417c-27.495-3.985-29.519-37.535-40.688-56.722c-0.498-0.957-1.22-1.486,0.121-0.339
					c0.682,0.504,2.278,1.655,5.183,2.256c1.085,0.188,3.299,0.362,3.958,0.189c-2.416,0.266-4.884,0.454-7.233,0.841
					c-30.683,3.942-46.364,25.824-71.428,45.779c-7.662,6.026-15.666,11.866-24.163,16.848
					C1622.548,2357.765,1583.677,2380.926,1542.443,2402.592L1542.443,2402.592z"/>
			</g>
			<g>
				<path style="fill:#232333;" d="M1715.343,2330.946c29.052-12.303,72.128-27.408,102.167-38.457c0,0,6.178,30.554,6.178,30.554
					C1791.714,2325.104,1746.746,2327.406,1715.343,2330.946L1715.343,2330.946z"/>
			</g>
			<g>
				<path style="fill:#52BF2E;" d="M2319.296,2016.604c0,0,191.993,228.388,277.548,519.454c0,0-48.24-414.092-204.503-543.888
					C2274.17,1894.014,2319.296,2016.604,2319.296,2016.604z"/>
			</g>
			<g>
				<path style="fill:#52BF2E;" d="M2596.85,2536.044c-54.062-183.915-150.605-342.803-214.33-434.849
					c-37.229-53.66-63.234-84.61-63.234-84.61s-45.111-122.55,73.076-24.403c23.468,19.505,44.531,45.422,63.323,75.392
					C2562.026,2237.061,2596.85,2536.044,2596.85,2536.044z"/>
			</g>
			<g>
				<path style="fill:#469B19;" d="M2455.685,2067.574c-30.815-4.186-59.939,20.395-73.165,33.621
					c-37.229-53.66-63.234-84.61-63.234-84.61s-45.111-122.55,73.076-24.403C2415.829,2011.688,2436.892,2037.605,2455.685,2067.574
					z"/>
			</g>
			<g>
				<path style="fill:#232333;" d="M2596.835,2549.651c-5.918,0-11.304-3.882-13.032-9.761
					c-83.718-284.812-273.01-512.278-274.912-514.541c-1.011-1.204-1.807-2.576-2.351-4.05c-5.042-13.699-19.71-59.656,3.274-75.899
					c17.744-12.542,45.879-1.34,91.211,36.313c158.628,131.758,207.327,535.642,209.321,552.771
					c0.818,7.012-3.87,13.481-10.789,14.89C2598.644,2549.563,2597.734,2549.651,2596.835,2549.651z M2331.301,2009.797
					c15.352,18.765,136.904,170.579,225.288,375.801c-28.506-130.017-82.28-307.673-172.932-382.971
					c-41.958-34.856-55.933-35.156-58.127-34.915C2322.594,1972.632,2325.361,1992.61,2331.301,2009.797z"/>
			</g>
			<g>
				<g>
					<path style="fill:#686779;" d="M2327.619,744.219c29.177-96.865,170.047-236.47,332.048-188.02
						c171.327,51.24,253.555,218.943,172.097,376.956c-63.248,122.69-184.769,155.703-269.758,157.526
						c0,0-97.481-8.497-161.579-78.92C2304.277,906.123,2327.619,744.219,2327.619,744.219z"/>
				</g>
				<g>
					<path style="fill:#60567C;" d="M2831.749,933.169c-55.59,107.866-156.271,146.373-237.539,155.364
						c-11.152,1.238-21.985,1.954-32.224,2.139c0,0-97.484-8.507-161.557-78.913c-96.175-105.649-72.809-267.516-72.809-267.516
						c29.16-96.894,170.047-236.509,332.058-188.053c95.052,28.435,162.706,92.699,190.124,171.313
						C2871.866,790.561,2868.026,862.855,2831.749,933.169z"/>
				</g>
				<g style="opacity:0.25;">
					<path style="fill:#181558;" d="M2831.749,933.169c-55.59,107.866-156.271,146.373-237.539,155.364
						c-13.553-7.356-23.087-18.569-17.81-35.679c15.72-50.639,116.685-7.563,190.356-141.234
						c57.351-104.01,4.171-177.426,17.288-179.97c9.283-1.844,45.364,11.82,65.758-4.148
						C2871.866,790.561,2868.026,862.855,2831.749,933.169z"/>
				</g>
				<g>
					<path style="fill:#232333;" d="M2319.092,741.65c17.291-101.948,126.487-190.603,225.594-209.808
						c81.198-16.341,165.934,12.725,230.18,62.696c64.922,50.187,107.024,130.021,106.278,212.645
						c0.688,108.749-64.654,216.971-164.103,262.194c-48.781,23.107-102.518,32.515-154.844,30.208
						c-11.033-0.736-11.325-16.687-0.382-17.808c97.282-8.562,192.662-54.117,243.217-139.082
						c67.999-107.549,49.163-241.074-52.96-318.998c-133.349-100.057-276.573-64.959-376.294,62.136
						c-15.138,18.93-28.459,39.179-39.631,60.955C2331.892,755.888,2317.628,751.607,2319.092,741.65L2319.092,741.65z"/>
				</g>
				<g>
					<path style="fill:#FFFFFF;" d="M2409.401,829.966c6.315-46.776,59.303-162.848,184.452-142.819
						c105.744,16.924,158.158,112.752,106.486,219.553c-42.176,87.173-144.094,89.95-180.805,80.53
						C2457.484,971.309,2400.563,895.422,2409.401,829.966z"/>
				</g>
				<g>
					<path style="fill:#FFFFFF;" d="M2700.319,906.704c-5.274,10.885-11.428,20.425-18.317,28.752
						c-48.236,58.962-130.298,60.028-162.469,51.761c-62.028-15.926-118.962-91.774-110.148-157.26
						c6.314-46.764,59.317-162.845,184.472-142.819c39.948,6.397,72.258,24.025,94.238,49.308l0.065,0.04
						C2724.347,778.084,2732.472,840.273,2700.319,906.704z"/>
				</g>
				<g style="opacity:0.25;">
					<path style="fill:#181558;" d="M2682.002,935.457c-48.236,58.962-130.298,60.028-162.469,51.761
						c-62.028-15.926-118.962-91.774-110.148-157.26c6.314-46.764,59.317-162.845,184.472-142.819
						c39.948,6.397,72.258,24.025,94.238,49.308c-115.584-70.575-262.318,61.609-168.499,177.33
						C2576.202,983.644,2641.544,961.365,2682.002,935.457z"/>
				</g>
				<g>
					<path style="fill:#232333;" d="M2554.069,1008.833c-15.234,0-28.699-1.714-38.962-4.348
						c-73.152-18.772-133.101-104.744-123.357-176.902l0,0c3.708-27.466,24.653-89.761,77.38-128.931
						c36.379-27.026,79.28-36.824,127.537-29.094c56.79,9.087,100.979,38.852,124.426,83.813
						c24.495,46.96,22.817,104.17-4.719,161.086C2680.636,988.323,2606.769,1008.833,2554.069,1008.833z M2427.052,832.349
						L2427.052,832.349c-7.288,53.984,41.619,123.44,96.909,137.629c22.231,5.703,120.654,10.991,160.342-71.035
						c22.51-46.526,24.358-92.373,5.203-129.097c-18.108-34.724-53.079-57.847-98.469-65.112
						c-38.406-6.145-72.278,1.431-100.662,22.517C2450.312,757.012,2430.558,806.409,2427.052,832.349z"/>
				</g>
				<g>
					<path style="fill:#232333;" d="M2327.49,841.476c16.079,74.496,54.372,141.918,109.059,194.592
						c7.63,8.018,16.284,14.722,23.971,22.845c-5.031-2.354-9.973-4.931-14.92-7.558
						C2371.876,1011.46,2320.176,926.07,2327.49,841.476L2327.49,841.476z"/>
				</g>
			</g>
			<g>
				<path style="fill:#FFFFFF;" d="M1994.441,2099.381c-402.108,40.336-650.918-122.175-700.74-423.239
					c-43.535-263.072,52.589-586.7,172.294-776.509c44.513-70.582,135.009-180.436,406.473-258.189
					c224.634-57.519,159.901-183.357,185.268-201.606c30.264-21.771,198.755-7.034,186.83,151.919
					c94.582-0.086,104.225-80.675,159.74-57.768c34.36,14.178,77.565,88.065,33.404,192.53
					c62.847,31.836,102.952,69.253,102.952,69.253c182.256,137.126,210.538,346.779,247.981,505.696
					c26.635,113.042,88.479,227.743,43.382,395.728c-57.314,213.491-258.946,323.059-585.143,371.411"/>
			</g>
			<g>
				<path style="fill:#FFFFFF;" d="M2832.022,1697.18c-16.579,61.741-45.21,114.786-85.421,160.125
					c-98.909,111.6-267.824,176.901-499.695,211.299l-252.454,30.792c-181.105,18.14-331.132-4.835-445.852-63.106
					c-140.038-71.028-227.515-194.652-254.881-360.15c-43.57-263.069,52.592-586.681,172.263-776.522
					c44.521-70.576,135.006-180.416,406.501-258.168c224.606-57.503,159.896-183.39,185.251-201.633
					c30.273-21.764,198.761-7.013,186.854,151.927c94.553-0.051,104.214-80.674,159.722-57.755
					c34.372,14.155,77.576,88.06,33.4,192.53c62.857,31.839,102.938,69.256,102.938,69.256
					c182.251,137.147,210.549,346.788,247.985,505.715C2815.261,1414.505,2877.135,1529.191,2832.022,1697.18z"/>
			</g>
			<g style="opacity:0.25;">
				<path style="fill:#181558;" d="M2746.601,1857.305c-98.909,111.6-267.824,176.901-499.695,211.299
					c0,0-68.295,16.206-118.375,21.55c-62.169,6.634-134.079,9.241-134.079,9.241c-181.105,18.14-331.132-4.835-445.852-63.106
					c-15.02-12.128,271.999,67.571,720.573-8.642C2528.155,1983.646,2746.518,1855.586,2746.601,1857.305z"/>
			</g>
			<g>
				<path style="fill:#60567C;" d="M1784.385,1097.97c-6.326-10.721,45.918-118.089,118.671-94.433
					c19.365,6.297,31.876,42.96,16.594,61.991C1892.883,1098.86,1790.711,1108.692,1784.385,1097.97z"/>
			</g>
			<g>
				<path style="fill:#60567C;" d="M2623.917,1060.427c5.393-8.772-42.566-107.641-110.955-81.738
					c-20.599,7.802-29.827,40.388-6.792,58.235C2550.284,1071.104,2618.524,1069.199,2623.917,1060.427z"/>
			</g>
			<g>
				
					<path style="fill:none;stroke:#6B184E;stroke-width:35.6251;stroke-linecap:round;stroke-linejoin:round;stroke-miterlimit:10;" d="
					M2558.634,1020.497"/>
			</g>
			<g>
				<path style="fill:#60567C;" d="M2008.813,1729.767c19.178-4.72,163.089-32.981,141.503-256.285
					c-17.692-183.027-100.039-209.088-213.128-218.059c-139.256-11.047-292.665,105.619-334.271,207.89
					c-84.924,208.752,67.676,326.046,186.416,322.783C1863.259,1784.066,1865.307,1765.086,2008.813,1729.767z"/>
			</g>
			<g>
				<path style="fill:#60567C;" d="M2546.643,1645.705c-47.833-6.362-134.887-52.836-152.432-202.521
					c-17.893-152.65,36.992-202.412,116.385-211.584c73.438-8.484,163.209,11.49,241.733,111.601
					c49.45,63.045,70.567,179.087,61.254,234.204c-8.059,47.691-51.68,78.2-125.122,73.178
					C2620.537,1645.939,2578.108,1649.89,2546.643,1645.705z"/>
			</g>
			<g>
				<path style="fill:#232333;" d="M2429.149,742.139c-37.311-22.681-78.597-42.32-121.35-52.04
					c-10.856-2.289-8.531-18.511,2.533-17.631c35.5,3.166,69.62,12.766,102.867,24.894c11.124,4.137,21.772,8.354,33.07,13.535
					c8.965,4.112,12.898,14.712,8.787,23.677C2450.648,744.399,2438.15,748.026,2429.149,742.139L2429.149,742.139z"/>
			</g>
			<g>
				<g>
					<path style="fill:#FFFFFF;" d="M2160.521,1686.542c17.389,36.577,41.873,57.636,82.16,60.784
						c43.692,3.414,68.912-32.687,82.662-59.183c8.367,21.383,33.836,36.65,58.279,32.557c49.564-8.302,56.758-76.59,56.758-76.59
						s-45.95-68.323-146.196-52.677C2193.937,1607.078,2160.521,1686.542,2160.521,1686.542z"/>
				</g>
				<g>
					<path style="fill:#FFFFFF;" d="M2160.521,1686.542c17.389,36.577,41.873,57.636,82.16,60.784
						c43.692,3.414,68.912-32.687,82.662-59.183c8.367,21.383,33.836,36.65,58.279,32.557c49.564-8.302,56.758-76.59,56.758-76.59
						s-45.95-68.323-146.196-52.677C2193.937,1607.078,2160.521,1686.542,2160.521,1686.542z"/>
				</g>
				<g style="opacity:0.25;">
					<path style="fill:#181558;" d="M2262.652,1719.356c23.684-5.362,47.146-52.798,40.044-74.582
						c-5.301-16.26-34.629-25.614-33.23-12.225c9.764,93.419-83.714,61.749-83.714,61.749S2228.344,1727.123,2262.652,1719.356z"/>
				</g>
				<g style="opacity:0.25;">
					<path style="fill:#181558;" d="M2385.875,1694.13c-29.851,10.311-47.121-38.308-52.157-60.661
						c-3.759-16.684,8.717-23.434,13.064-10.694c30.384,89.043,78.087,23.916,78.087,23.916S2414.729,1684.162,2385.875,1694.13z"/>
				</g>
				<g>
					<path style="fill:#232333;" d="M2166.554,1683.674c16.721,29.799,42.762,50.54,77.299,50.82
						c32.603,0.515,55.77-24.089,69.362-52.645c0,0.001,13.077-25.947,13.077-25.947l11.776,27.262
						c8.976,19.318,34.392,30.839,54.682,22.041c10.352-4.192,19.176-13.273,25.973-24.408
						c6.789-11.238,11.916-24.732,15.127-37.844c1.888-7.684,13.481-6.063,13.173,1.856c-1.604,31.808-13.927,66.588-43.813,82.292
						c-32.975,17.939-77.144,1.75-90.59-33.979c0,0.001,24.851,1.314,24.851,1.314c-17.328,34.429-52.206,72.798-95.555,65.741
						c-19.634-1.937-40.118-9.13-55.58-22.561c-15.54-13.329-25.313-30.796-31.847-48.207c-1.3-3.467,0.454-7.33,3.921-8.632
						C2161.514,1679.612,2164.944,1680.903,2166.554,1683.674L2166.554,1683.674z"/>
				</g>
				<g>
					<path style="fill:#232333;" d="M2321.316,1624.151c13.067-2.413,6.559,34.455,18.896,62.017
						c4.765,10.647-41.539,24.844-33.335,6.031C2325.1,1650.417,2302.766,1627.576,2321.316,1624.151z"/>
				</g>
				<g>
					<g>
						<path style="fill:#232333;" d="M2234.781,1580.468c1.877,46.653,70.167,73.573,84.829,73.28
							c14.663-0.293,83.276-36.307,76.722-77.724c-4.21-26.604-51.853-33.178-73.916-32.737
							C2293.985,1543.856,2233.689,1553.357,2234.781,1580.468z"/>
					</g>
					<g style="opacity:0.5;">
						<path style="fill:#FFFFFF;" d="M2283.202,1574.211c0.456,13.587,23.582,18.622,40.457,17.836
							c16.875-0.787,39.591-7.959,39.135-21.546c-0.234-6.973-40.037-5.117-40.037-5.117S2282.968,1567.238,2283.202,1574.211z"/>
					</g>
				</g>
			</g>
			<g>
				<path style="fill:#232333;" d="M1994.442,2099.381c-168.364,46.128-371.971,15.457-516.869-83.216
					c-101.278-68.72-170.43-179.483-196.853-297.963c-57.215-266.908,21.865-584.794,158.066-817.163
					c84.353-147.886,246.353-225.665,402.8-273.023c0,0,21.623-6.282,21.623-6.282c45.107-11.601,94.639-28.239,128.354-59.915
					c24.065-21.85,35.662-52.11,37.434-84.337c1.844-27.613,1.499-54.783,36.472-62.167c37.377-7.85,75.103-0.434,109.178,14.918
					c64.701,29.367,94.746,94.968,87.681,162.854c0.001-0.001-17.777-19.145-17.777-19.145
					c29.603,0.366,55.223-10.133,78.321-29.496c14.359-11.053,26.792-24.037,46.471-29.998
					c43.031-12.677,80.326,26.541,93.473,63.031c19.864,50.371,11.758,108.172-8.693,155.956c0.007,0.065-8.367-22.811-8.364-22.808
					c36.399,17.868,80.845,48.374,105.612,70.909c156.697,116.076,208.188,295.212,245.697,476.697
					c21.237,106.338,69.332,206.973,68.709,317.572c-2.14,281.088-201.426,424.381-457.686,474.599
					c-53.145,10.278-107.129,16.637-161.21,18.2c167.365-46.745,348.322-87.01,474.496-212.865
					c72.776-73.269,109.356-177.331,108.775-279.702c0.348-106.77-47.602-206.272-67.854-310.053
					c-46.422-215.645-90.103-363.547-280.879-493.213c-16.649-11.141-33.966-21.281-51.759-30.365
					c-8.405-4.279-11.944-14.325-8.352-22.842c22.119-51.623,28.487-120.664-13.665-162.414
					c-7.397-7.009-18.856-11.273-28.323-8.504c-9.158,2.433-21.111,13.096-34.235,23.651
					c-26.652,23.079-64.333,38.167-100.503,37.268c-10.366,0.195-18.708-8.863-17.778-19.165c1.782-26.82-2.01-53.364-13.804-75.37
					c-23.453-44.888-80.622-67.404-129.634-62.647c-4.401,0.313-10.548,1.878-13.676,3.479c-0.284,0.126-0.223,0.173-0.293,0.167
					c0.696-0.459,1.243-1.007,1.644-1.484c0.782-0.933,0.841-1.279,0.758-1.014c-1.833,8.004-1.813,17.261-2.588,27.075
					c-3.769,101.106-85.885,151.243-173.146,176.56c-160.545,45.309-332.416,116.36-418.87,267.155
					c-51.771,86.057-90.26,179.707-119.088,275.885c-67.359,230.417-100.756,541.856,77.995,729.728
					C1588.151,2086.816,1791.749,2086,1994.442,2099.381L1994.442,2099.381z"/>
			</g>
			<g>
				<g>
					<path style="fill:#686779;" d="M1626.174,812.799c-32.217-95.896-177.42-230.99-337.812-177.454
						c-169.626,56.618-246.524,226.831-160.123,382.196c67.086,120.634,189.588,149.798,274.592,148.94
						c0,0,97.165-11.567,159.009-83.976C1654.611,973.886,1626.174,812.799,1626.174,812.799z"/>
				</g>
				<g>
					<path style="fill:#60567C;" d="M1128.254,1017.555c58.965,106.059,160.809,141.372,242.32,147.795
						c11.186,0.885,22.036,1.26,32.275,1.121c0,0,97.167-11.578,158.988-83.969c92.795-108.63,64.336-269.679,64.336-269.679
						c-32.201-95.926-177.422-231.028-337.824-177.487c-94.108,31.419-159.702,97.785-184.626,177.223
						C1083.659,876.283,1089.778,948.419,1128.254,1017.555z"/>
				</g>
				<g style="opacity:0.25;">
					<path style="fill:#181558;" d="M1128.254,1017.555c58.965,106.059,160.809,141.372,242.32,147.795
						c13.314-7.78,22.49-19.288,16.676-36.223c-17.309-50.118-116.865-3.879-194.716-135.16
						c-60.603-102.15-9.765-177.206-22.956-179.335c-9.337-1.55-44.969,13.244-65.856-2.072
						C1083.659,876.283,1089.778,948.419,1128.254,1017.555z"/>
				</g>
				<g>
					<path style="fill:#232333;" d="M1617.731,815.635c-61.94-112.087-194.386-208.037-325.403-161.561
						c-45.422,15.413-87.674,40.824-120.214,76.151c-77.382,83.399-79.9,203.089-16.855,296.01
						c53.222,83.318,149.966,125.852,247.482,131.339c10.905,0.622,11.21,16.894,0.179,17.812
						c-52.227,3.956-106.234-3.754-155.72-25.31c-49.449-21.267-93.586-57.628-122.99-103.43
						c-79.791-120.943-62.525-275.705,50.22-369.348c62.63-51.974,146.421-83.701,228.085-69.923
						c91.947,15.845,180.053,79.926,219.87,163.85c5.57,12.305,10.001,25.26,12.232,38.737c0.814,4.916-2.511,9.559-7.426,10.373
						C1623.254,820.988,1619.489,818.982,1617.731,815.635L1617.731,815.635z"/>
				</g>
				<g>
					<path style="fill:#FFFFFF;" d="M1547.137,901.082c-7.787-46.553-64.409-160.897-188.864-136.93
						c-105.158,20.25-154.523,117.684-99.508,222.802c44.904,85.8,146.859,85.361,183.255,74.788
						C1503.536,1043.871,1558.035,966.227,1547.137,901.082z"/>
				</g>
				<g>
					<path style="fill:#FFFFFF;" d="M1258.784,986.958c5.615,10.713,12.066,20.055,19.215,28.161
						c50.071,57.411,132.126,55.889,164.021,46.611c61.494-17.875,116.008-95.48,105.134-160.655
						c-7.786-46.542-64.423-160.893-188.885-136.93c-39.726,7.654-71.464,26.292-92.636,52.256l-0.064,0.042
						C1230.711,859.159,1224.552,921.573,1258.784,986.958z"/>
				</g>
				<g style="opacity:0.25;">
					<path style="fill:#181558;" d="M1277.999,1015.118c50.071,57.411,132.126,55.889,164.021,46.611
						c61.494-17.875,116.008-95.48,105.134-160.655c-7.786-46.542-64.423-160.893-188.885-136.93
						c-39.726,7.654-71.464,26.292-92.636,52.256c113.301-74.185,264.13,53.305,174.008,171.927
						C1385.266,1059.945,1319.254,1039.737,1277.999,1015.118z"/>
				</g>
				<g>
					<path style="fill:#232333;" d="M1401.686,1084.524c-52.146,0-122.195-19.551-158.704-89.312
						c-29.319-56.021-32.8-113.147-9.8-160.857c22.019-45.676,65.247-76.819,121.721-87.693
						c47.983-9.243,91.177-0.808,128.396,25.056c53.933,37.488,76.833,99.089,81.406,126.423l0,0
						c12.012,71.819-45.195,159.639-117.717,180.706C1435.39,1082.217,1419.594,1084.524,1401.686,1084.524z M1391.218,778.713
						c-9.558,0-19.421,0.974-29.575,2.93c-45.139,8.691-79.363,32.905-96.367,68.181c-17.988,37.312-14.695,83.079,9.27,128.87
						c42.256,80.737,140.466,72.336,162.507,65.945c54.81-15.923,101.497-86.892,92.517-140.618l0,0
						c-4.319-25.815-25.62-74.563-66.604-103.047C1441.65,786.157,1417.607,778.713,1391.218,778.713z"/>
				</g>
				<g>
					<path style="fill:#232333;" d="M1629.371,910.004c9.977,84.326-39.002,171.295-111.432,213.5
						c-4.862,2.782-9.72,5.512-14.676,8.023c7.428-8.36,15.866-15.335,23.24-23.589
						C1579.503,1053.565,1615.646,984.971,1629.371,910.004L1629.371,910.004z"/>
				</g>
			</g>
			<g>
				<g>
					<g>
						<g>
							<path style="fill:#232333;" d="M2577.286,1335.532c51.21,0.582,91.665,61.305,90.36,135.627
								c-1.305,74.322-43.877,134.101-95.087,133.519c-51.209-0.582-91.666-61.304-90.361-135.627
								C2483.504,1394.729,2526.077,1334.95,2577.286,1335.532z"/>
						</g>
					</g>
				</g>
				<g>
					<g>
						<g>
							<path style="fill:#FFFFFF;" d="M2577.349,1366.734c15.368,8.564,19.474,34.378,9.171,57.655
								c-10.302,23.278-31.111,35.204-46.479,26.639c-15.367-8.564-19.474-34.377-9.171-57.654
								C2541.172,1370.097,2561.981,1358.169,2577.349,1366.734z"/>
						</g>
					</g>
				</g>
				<g>
					<g>
						<g>
							<path style="fill:#B199C5;" d="M2613.706,1530.958c6.996,6.519,6.36,20.422-1.42,31.052
								c-7.78,10.631-19.758,13.965-26.753,7.445c-6.996-6.518-6.36-20.421,1.42-31.05
								C2594.732,1527.773,2606.711,1524.44,2613.706,1530.958z"/>
						</g>
					</g>
				</g>
			</g>
			<g>
				<g>
					<g>
						<g>
							<path style="fill:#232333;" d="M1952.703,1384.198c-55.989,0.636-100.22,67.026-98.793,148.283
								c1.427,81.258,47.971,146.615,103.961,145.979c55.987-0.636,100.22-67.025,98.793-148.283
								C2055.237,1448.919,2008.691,1383.561,1952.703,1384.198z"/>
						</g>
					</g>
				</g>
				<g>
					<g>
						<g>
							<path style="fill:#FFFFFF;" d="M1952.634,1418.311c-16.802,9.364-21.292,37.586-10.027,63.036
								c11.264,25.45,34.015,38.49,50.817,29.125c16.801-9.363,21.291-37.585,10.027-63.034
								C1992.187,1421.987,1969.437,1408.947,1952.634,1418.311z"/>
						</g>
					</g>
				</g>
				<g>
					<g>
						<g>
							<path style="fill:#B199C5;" d="M1912.884,1597.86c-7.649,7.127-6.953,22.327,1.553,33.949
								c8.506,11.623,21.602,15.268,29.25,8.14c7.649-7.126,6.953-22.327-1.553-33.948
								C1933.629,1594.379,1920.532,1590.734,1912.884,1597.86z"/>
						</g>
					</g>
				</g>
			</g>
		</g>
	</g>
</g>
</svg>
